<?xml version="1.0" encoding="UTF-8"?>
<svg xmlns="http://www.w3.org/2000/svg" xmlns:xlink="http://www.w3.org/1999/xlink" width="20pt" height="20pt" viewBox="0 0 20 20" version="1.1">
<g id="surface1">
<path style=" stroke:none;fill-rule:nonzero;fill:rgb(9.019608%,77.647059%,44.313725%);fill-opacity:1;" d="M 12.90625 1.855469 C 12.953125 1.347656 13.75 1.308594 14.355469 1.515625 C 14.394531 1.527344 15.398438 1.894531 15.113281 2.109375 C 14.003906 1.820312 12.871094 2.820312 12.90625 1.855469 Z M 4.929688 2.125 C 6.144531 1.808594 7.386719 2.90625 7.355469 1.847656 C 7.304688 1.292969 6.425781 1.25 5.757812 1.472656 C 5.71875 1.484375 4.621094 1.882812 4.929688 2.125 Z M 13.152344 6.25 C 12.800781 6.25 12.515625 6.53125 12.515625 6.875 C 12.515625 7.21875 12.800781 7.5 13.152344 7.5 C 13.5 7.5 13.789062 7.21875 13.789062 6.875 C 13.789062 6.53125 13.5 6.25 13.152344 6.25 Z M 6.8125 6.25 C 6.464844 6.25 6.179688 6.53125 6.179688 6.875 C 6.179688 7.21875 6.464844 7.5 6.8125 7.5 C 7.160156 7.5 7.449219 7.21875 7.449219 6.875 C 7.449219 6.53125 7.160156 6.25 6.8125 6.25 Z M 19.453125 12.625 C 19.058594 13.5625 17.839844 13.054688 16.914062 12.578125 C 16.378906 15.277344 14.609375 16.929688 11.90625 17.429688 C 11.914062 17.464844 11.828125 17.425781 12.855469 17.46875 C 14.1875 17.523438 15.390625 17.347656 16.722656 17.15625 C 15.9375 16.617188 16.269531 15.707031 16.332031 15.667969 C 16.386719 15.632812 16.914062 15.734375 17.191406 16.117188 C 17.535156 15.628906 18.320312 15.539062 18.390625 15.585938 C 18.453125 15.628906 18.648438 16.402344 18.113281 16.9375 C 18.300781 16.902344 18.441406 16.875 18.503906 16.855469 C 18.609375 16.824219 19.207031 17.296875 18.628906 17.375 C 18.058594 17.464844 17.730469 17.574219 16.757812 17.796875 C 14.9375 18.214844 13.347656 18.257812 12.085938 18.296875 L 12.128906 18.75 C 12.277344 19.457031 11.199219 19.699219 11.03125 18.992188 C 11.0625 19.691406 9.957031 19.84375 9.902344 18.953125 L 9.882812 19.160156 C 9.859375 19.878906 8.757812 19.859375 8.761719 19.136719 C 8.464844 19.664062 7.644531 19.402344 7.714844 18.804688 L 7.761719 18.320312 C 6.304688 18.355469 5.394531 18.441406 5.308594 18.441406 C 4.480469 18.441406 4.480469 17.207031 5.308594 17.207031 C 5.40625 17.207031 6.410156 17.257812 7.816406 17.316406 C 5.394531 16.710938 3.703125 15.167969 3.257812 12.699219 C 2.265625 13.199219 0.976562 13.746094 0.550781 12.730469 C 0.132812 11.738281 1.40625 11.066406 3.203125 9.863281 C 3.230469 9.605469 3.265625 9.34375 3.3125 9.089844 C 2.738281 8.324219 2.851562 7.671875 2.671875 6.730469 C 2.003906 6.824219 1.75 6.375 1.734375 5.828125 C 1.746094 5.542969 1.820312 5.246094 1.832031 5.226562 C 1.871094 5.15625 2.226562 5.148438 2.332031 5.125 C 2.570312 3.886719 4.339844 3.828125 5.941406 3.777344 C 6.722656 2.925781 7.734375 2.15625 9.152344 1.890625 C 8.546875 1.132812 9.015625 0.332031 9.054688 0.3125 C 9.121094 0.28125 9.894531 0.480469 10.101562 1.21875 C 10.304688 0.875 10.824219 0.773438 10.878906 0.800781 C 10.917969 0.824219 11.132812 1.386719 10.679688 1.8125 C 12.28125 1.949219 13.550781 2.777344 14.492188 3.792969 C 15.925781 3.851562 17.339844 4.023438 17.550781 5.121094 C 17.660156 5.144531 18.011719 5.152344 18.054688 5.222656 C 18.070312 5.242188 18.140625 5.539062 18.152344 5.824219 C 18.132812 6.367188 17.878906 6.816406 17.214844 6.726562 C 17.085938 7.402344 17.105469 8.011719 16.867188 8.589844 C 16.964844 9.046875 17.027344 9.519531 17.0625 10.011719 C 18.527344 11.003906 19.847656 11.671875 19.453125 12.625 Z M 8.707031 6.246094 C 8.742188 4.527344 7.203125 4.597656 5.585938 4.671875 C 4.726562 4.710938 4.042969 4.746094 3.785156 5.214844 C 3.328125 6.03125 4.015625 8.84375 4.703125 9.167969 C 5.09375 9.351562 7.617188 9.476562 8.128906 8.890625 C 8.453125 8.523438 8.722656 6.960938 8.707031 6.246094 Z M 10.769531 8.523438 C 10.597656 8.039062 10.53125 7.347656 10.164062 7.246094 C 10.082031 7.226562 9.804688 7.226562 9.726562 7.246094 C 9.332031 7.355469 9.296875 8.109375 9.050781 8.699219 C 9.660156 8.699219 9.816406 9.078125 9.992188 9.078125 C 10.164062 9.078125 10.242188 8.636719 10.769531 8.523438 Z M 16.152344 5.214844 C 15.894531 4.742188 15.171875 4.710938 14.308594 4.671875 C 12.714844 4.597656 11.207031 4.523438 11.242188 6.246094 C 11.222656 6.960938 11.441406 8.523438 11.765625 8.894531 C 12.28125 9.476562 14.804688 9.355469 15.191406 9.171875 C 15.820312 8.875 16.640625 6.089844 16.152344 5.214844 Z M 16.152344 5.214844 "/>
</g>
</svg>
